<?xml version="1.0" encoding="UTF-8" standalone="no"?>
<!-- Generator: Adobe Illustrator 22.0.0, SVG Export Plug-In . SVG Version: 6.00 Build 0)  -->

<svg
   xmlns:dc="http://purl.org/dc/elements/1.1/"
   xmlns:cc="http://creativecommons.org/ns#"
   xmlns:rdf="http://www.w3.org/1999/02/22-rdf-syntax-ns#"
   xmlns:svg="http://www.w3.org/2000/svg"
   xmlns="http://www.w3.org/2000/svg"
   xmlns:xlink="http://www.w3.org/1999/xlink"
   xmlns:sodipodi="http://sodipodi.sourceforge.net/DTD/sodipodi-0.dtd"
   xmlns:inkscape="http://www.inkscape.org/namespaces/inkscape"
   inkscape:version="0.92.3 (2405546, 2018-03-11)"
   sodipodi:docname="pathmod-icon.svg"
   xml:space="preserve"
   style="enable-background:new 0 0 150 150;"
   viewBox="0 0 150 150"
   y="0px"
   x="0px"
   id="Layer_1"
   version="1.1"><sodipodi:namedview
   inkscape:current-layer="layer9"
   inkscape:window-maximized="1"
   inkscape:window-y="0"
   inkscape:window-x="0"
   inkscape:cy="77.140322"
   inkscape:cx="45.291616"
   inkscape:zoom="5.4866667"
   showgrid="false"
   id="namedview133"
   inkscape:window-height="1004"
   inkscape:window-width="1920"
   inkscape:pageshadow="2"
   inkscape:pageopacity="0"
   guidetolerance="10"
   gridtolerance="10"
   objecttolerance="10"
   borderopacity="1"
   bordercolor="#666666"
   pagecolor="#ffffff"
   showguides="false" /><metadata
   id="metadata137"><rdf:RDF><cc:Work
       rdf:about=""><dc:format>image/svg+xml</dc:format><dc:type
         rdf:resource="http://purl.org/dc/dcmitype/StillImage" /><dc:title></dc:title></cc:Work></rdf:RDF></metadata><defs
   id="defs135" />
<style
   id="style112"
   type="text/css">
	.st0{fill:#FFFFFF;}
	.st1{fill:#4DA925;}
	.st2{fill:#2A3238;}
</style>
<g
   style="display:inline"
   inkscape:label="perspective_top"
   id="layer4"
   inkscape:groupmode="layer"><g
     style="display:inline"
     inkscape:label="perspective_top_guide"
     id="layer5"
     inkscape:groupmode="layer"><path
       style="display:inline;fill:#ffffff;stroke:#ffffff;stroke-width:1px;stroke-linecap:butt;stroke-linejoin:miter;stroke-opacity:1"
       d="M 20.413122,34.629405 68.347509,6.0145809 118.83354,35.905225 68.712029,65.978129 Z"
       id="path359"
       inkscape:connector-curvature="0" /></g><g
     style="display:inline"
     inkscape:label="perspective_top_text"
     id="layer6"
     inkscape:groupmode="layer"><g
       transform="matrix(0.77856017,0,0,0.77856017,8.0600872,-0.76269553)"
       aria-label="PATH"
       style="font-style:normal;font-weight:normal;font-size:40px;line-height:2.25;font-family:sans-serif;letter-spacing:1px;word-spacing:0px;display:inline;fill:#008aa5;fill-opacity:1;stroke:none"
       id="text363"><path
         inkscape:connector-curvature="0"
         d="m 73.63305,17.132442 c 0,0 5.501689,3.257317 5.501689,3.257317 1.64703,0.975137 1.546971,2.54111 -0.306748,4.698777 -1.829983,2.152459 -5.270947,4.738981 -10.322135,7.757558 -5.075368,3.033028 -9.421917,5.099824 -13.033875,6.198059 -3.579652,1.087337 -6.169696,1.126207 -7.770121,0.120116 0,0 -2.131715,-1.340081 -2.131715,-1.340081 0,0 -16.707244,9.976848 -16.707244,9.976848 0,0 -3.164238,-2.05377 -3.164238,-2.05377 0,0 47.934387,-28.614824 47.934387,-28.614824 m -5.658837,7.313 c 0,0 -13.417038,8.012078 -13.417038,8.012078 0,0 1.801945,1.113479 1.801945,1.113479 0.633163,0.391252 1.703791,0.346647 3.211926,-0.134375 1.530496,-0.494149 3.372596,-1.384437 5.525319,-2.670451 2.152255,-1.285734 3.634543,-2.38132 4.446736,-3.286433 0.811553,-0.9044 0.896302,-1.549541 0.255319,-1.935598 0,0 -1.824207,-1.0987 -1.824207,-1.0987"
         style="font-style:normal;font-variant:normal;font-weight:bold;font-stretch:normal;line-height:1;font-family:sans-serif;-inkscape-font-specification:'sans-serif Bold';letter-spacing:1px;fill:#008aa5;fill-opacity:1"
         id="path1223" /><path
         inkscape:connector-curvature="0"
         d="m 53.549473,52.714741 c 0,0 -5.137394,-3.278929 -5.137394,-3.278929 0,0 -9.664486,4.780948 -9.664486,4.780948 0,0 -3.243516,-2.105225 -3.243516,-2.105225 0,0 53.230996,-26.037824 53.230996,-26.037824 0,0 4.060864,2.404267 4.060864,2.404267 0,0 -44.045797,32.231001 -44.045797,32.231001 0,0 -3.307783,-2.146938 -3.307783,-2.146938 0,0 8.107116,-5.8473 8.107116,-5.8473 m 4.705134,-8.155135 c 0,0 3.519489,2.20827 3.519489,2.20827 0,0 17.60201,-12.680642 17.60201,-12.680642 0,0 -21.121499,10.472372 -21.121499,10.472372"
         style="font-style:normal;font-variant:normal;font-weight:bold;font-stretch:normal;line-height:1;font-family:sans-serif;-inkscape-font-specification:'sans-serif Bold';letter-spacing:1px;fill:#008aa5;fill-opacity:1"
         id="path1225" /><path
         inkscape:connector-curvature="0"
         d="m 96.925537,30.922939 c 0,0 12.458263,7.376009 12.458263,7.376009 0,0 -9.625556,5.766769 -9.625556,5.766769 0,0 -4.477014,-2.698447 -4.477014,-2.698447 0,0 -39.701276,23.774645 -39.701276,23.774645 0,0 -3.33476,-2.164448 -3.33476,-2.164448 0,0 39.579634,-23.693485 39.579634,-23.693485 0,0 -4.420127,-2.664159 -4.420127,-2.664159 0,0 9.520836,-5.696884 9.520836,-5.696884"
         style="font-style:normal;font-variant:normal;font-weight:bold;font-stretch:normal;line-height:1;font-family:sans-serif;-inkscape-font-specification:'sans-serif Bold';letter-spacing:1px;fill:#008aa5;fill-opacity:1"
         id="path1227" /><path
         inkscape:connector-curvature="0"
         d="m 111.67111,39.653166 c 0,0 3.5528,2.103468 3.5528,2.103468 0,0 -18.925842,11.345341 -18.925842,11.345341 0,0 5.197402,3.186648 5.197402,3.186648 0,0 19.01264,-11.403437 19.01264,-11.403437 0,0 3.61097,2.137899 3.61097,2.137899 0,0 -50.121511,30.072904 -50.121511,30.072904 0,0 -3.454908,-2.24243 -3.454908,-2.24243 0,0 21.215138,-12.724455 21.215138,-12.724455 0,0 -5.152884,-3.216443 -5.152884,-3.216443 0,0 -21.11798,12.659445 -21.11798,12.659445 0,0 -3.399124,-2.206224 -3.399124,-2.206224 0,0 49.583299,-29.712716 49.583299,-29.712716"
         style="font-style:normal;font-variant:normal;font-weight:bold;font-stretch:normal;line-height:1;font-family:sans-serif;-inkscape-font-specification:'sans-serif Bold';letter-spacing:1px;fill:#008aa5;fill-opacity:1"
         id="path1229" /></g></g></g><g
   inkscape:label="perspective_side"
   id="layer7"
   inkscape:groupmode="layer"><g
     inkscape:label="perspective_side_text"
     id="layer9"
     inkscape:groupmode="layer"><path
       inkscape:connector-curvature="0"
       id="path1341"
       d="m 18.226002,92.952612 0.36452,-56.865127 51.215067,31.895504 0.9113,55.042531 z"
       style="fill:#ffffff;stroke:#ffffff;stroke-width:1px;stroke-linecap:butt;stroke-linejoin:miter;stroke-opacity:1" /><g
       id="text1345"
       style="font-style:normal;font-weight:normal;font-size:40px;line-height:1.25;font-family:sans-serif;letter-spacing:0px;word-spacing:0px;fill:#008a71;fill-opacity:1;stroke:none"
       aria-label="MOD"
       transform="matrix(0.72333743,0,0,0.80147804,10.873155,14.253892)"><path
         id="path1354"
         style="font-size:29.33333397px;fill:#008a71;fill-opacity:1"
         d="m 18.584325,37.054205 c 0,0 3.472692,2.159764 3.472692,2.159764 0,0 4.260467,39.541734 4.260467,39.541734 0,0 4.460053,-34.1182 4.460053,-34.1182 0,0 3.399215,2.114067 3.399215,2.114067 0,0 0.03522,54.27943 0.03522,54.27943 0,0 -2.276859,-1.306627 -2.276859,-1.306627 0,0 0.01692,-47.868684 0.01692,-47.868684 0,0 -4.468367,34.615283 -4.468367,34.615283 0,0 -2.363269,-1.378478 -2.363269,-1.378478 0,0 -4.30753,-40.100685 -4.30753,-40.100685 0,0 -0.259397,48.200943 -0.259397,48.200943 0,0 -2.320472,-1.331658 -2.320472,-1.331658 0,0 0.351326,-54.806889 0.351326,-54.806889"
         inkscape:connector-curvature="0" /><path
         id="path1356"
         style="font-size:29.33333397px;fill:#008a71;fill-opacity:1"
         d="m 45.440635,58.578802 c -1.624482,-1.003303 -2.911538,0.136818 -3.861328,3.435413 -0.947289,3.3204 -1.41155,8.377778 -1.388968,15.190038 0.02264,6.829504 0.527867,12.545715 1.516917,17.12366 0.998389,4.590602 2.328234,7.368987 3.984506,8.326827 1.651378,0.95502 2.939984,-0.29844 3.865831,-3.744703 0.928437,-3.423926 1.36344,-8.536316 1.308892,-15.319919 -0.05441,-6.766865 -0.570487,-12.37061 -1.54717,-16.835724 -0.967616,-4.452704 -2.258906,-7.175196 -3.87868,-8.175592 0,0 0,0 0,0 m -0.03299,-5.790262 c 2.304509,1.435192 4.1585,5.051389 5.571185,10.861634 1.415276,5.798115 2.162075,12.900588 2.238747,21.346234 0.07703,8.48523 -0.556298,14.903461 -1.907523,19.229462 -1.360961,4.33203 -3.222138,5.83513 -5.583802,4.4821 -2.379257,-1.36312 -4.299881,-5.05255 -5.752084,-11.054922 -1.441711,-5.985945 -2.171185,-13.295508 -2.190483,-21.888319 -0.01915,-8.527583 0.67003,-14.843719 2.060136,-18.97517 1.387785,-4.121758 3.24239,-5.446752 5.563824,-4.001019 0,0 0,0 0,0"
         inkscape:connector-curvature="0" /><path
         id="path1358"
         style="font-size:29.33333397px;fill:#008a71;fill-opacity:1"
         d="m 58.655038,67.751529 c 0,0 0.481088,41.555141 0.481088,41.555141 0,0 2.677687,1.55127 2.677687,1.55127 2.250581,1.30384 3.866389,0.56131 4.85073,-2.21347 0.986782,-2.75717 1.422211,-7.74085 1.3104,-14.926791 -0.110374,-7.093486 -0.70295,-12.567596 -1.777421,-16.452615 -1.066581,-3.900014 -2.701528,-6.528123 -4.912334,-7.891524 0,0 -2.63015,-1.622011 -2.63015,-1.622011 M 56.406305,60.57675 c 0,0 4.472246,2.781414 4.472246,2.781414 3.096678,1.925911 5.389648,5.433364 6.893214,10.534787 1.504888,5.083831 2.332498,12.129938 2.48247,21.188291 0.151973,9.179108 -0.467201,15.541198 -1.865241,19.047418 -1.407173,3.52912 -3.684417,4.40124 -6.838349,2.59128 0,0 -4.57671,-2.62645 -4.57671,-2.62645 0,0 -0.56763,-53.51674 -0.56763,-53.51674"
         inkscape:connector-curvature="0" /></g></g><g
     inkscape:label="perspective_side_guide"
     id="layer8"
     inkscape:groupmode="layer" /></g><g
   style="display:inline"
   inkscape:label="bash_object"
   id="layer3"
   inkscape:groupmode="layer"><g
     id="g130"
     style="display:inline">
	<g
   transform="translate(-6.1968408,-10.571081)"
   id="g128">
		<g
   style="fill:#000000"
   id="g118">
			<g
   style="fill:#000000"
   id="g116">
				<path
   inkscape:connector-curvature="0"
   style="fill:#000000"
   id="path114"
   d="M 118.9,40.3 81.7,18.2 c -2.2,-1.3 -4.7,-2 -7.2,-2 -2.5,0 -5,0.7 -7.2,2 L 30.1,40.3 c -4.4,2.6 -7.2,7.5 -7.2,12.8 v 44.2 c 0,5.3 2.7,10.1 7.2,12.8 l 37.2,22.1 c 2.2,1.3 4.7,2 7.2,2 2.5,0 5,-0.7 7.2,-2 l 37.2,-22.1 c 4.4,-2.6 7.2,-7.5 7.2,-12.8 V 53 c 0,-5.2 -2.7,-10.1 -7.2,-12.7 z M 68.6,129.8 31.4,107.7 c -3.6,-2.2 -5.9,-6.2 -5.9,-10.5 V 53 c 0,-4.3 2.3,-8.4 5.9,-10.5 L 68.6,20.4 c 1.8,-1.1 3.8,-1.6 5.9,-1.6 2.1,0 4.1,0.6 5.9,1.6 l 37.2,22.1 c 3.1,1.8 5.1,5 5.7,8.5 -1.2,-2.6 -4,-3.4 -7.3,-1.5 L 80.9,71.3 c -4.4,2.6 -7.6,5.4 -7.6,10.7 v 43.4 c 0,3.2 1.3,5.2 3.2,5.8 -0.6,0.1 -1.3,0.2 -2,0.2 -2,0.1 -4.1,-0.5 -5.9,-1.6 z"
   class="st0" />
			</g>
		</g>
		<g
   id="g122">
			<path
   style="fill:#4da925"
   inkscape:connector-curvature="0"
   id="path120"
   d="m 109.2,101.5 -9.3,5.5 c -0.2,0.1 -0.4,0.3 -0.4,0.6 v 2.4 c 0,0.3 0.2,0.4 0.4,0.3 l 9.4,-5.7 c 0.2,-0.1 0.3,-0.4 0.3,-0.7 v -2.1 c 0,-0.3 -0.2,-0.4 -0.4,-0.3 z"
   class="st1" />
		</g>
		<g
   style="fill:#ffffff"
   id="g126">
			<path
   inkscape:connector-curvature="0"
   style="fill:#ffffff"
   id="path124"
   d="m 89.4,81.1 c 0.3,-0.2 0.5,0 0.6,0.4 v 3.2 c 1.3,-0.5 2.5,-0.7 3.6,-0.4 0.2,0.1 0.3,0.4 0.2,0.7 l -0.7,2.8 c -0.1,0.2 -0.2,0.4 -0.3,0.6 -0.1,0.1 -0.1,0.1 -0.2,0.1 -0.1,0 -0.2,0.1 -0.3,0 -0.5,-0.1 -1.6,-0.4 -3.4,0.6 -1.9,1 -2.6,2.6 -2.5,3.8 0,1.5 0.8,1.9 3.3,1.9 3.4,0.1 4.9,1.6 5,5 0,3.4 -1.8,7.1 -4.6,9.3 l 0.1,3.2 c 0,0.4 -0.2,0.8 -0.5,1 l -1.9,1.1 c -0.3,0.2 -0.5,0 -0.6,-0.4 v -3.1 c -1.6,0.7 -3.2,0.8 -4.3,0.4 -0.2,-0.1 -0.3,-0.4 -0.2,-0.7 l 0.7,-2.9 c 0.1,-0.2 0.2,-0.5 0.3,-0.6 0.1,-0.1 0.1,-0.1 0.2,-0.1 0.1,-0.1 0.2,-0.1 0.3,0 1.1,0.4 2.6,0.2 3.9,-0.5 1.8,-0.9 2.9,-2.7 2.9,-4.5 0,-1.6 -0.9,-2.3 -3,-2.3 -2.7,0 -5.2,-0.5 -5.3,-4.5 0,-3.3 1.7,-6.7 4.4,-8.8 v -3.2 c 0,-0.4 0.2,-0.8 0.5,-1 z"
   class="st2" />
		</g>
	<text
   id="text164"
   style="font-style:normal;font-weight:normal;font-size:20px;line-height:1.25;font-family:sans-serif;letter-spacing:0px;word-spacing:0px;fill:#000000;fill-opacity:1;stroke:none"
   xml:space="preserve"><textPath
     style="font-style:normal;font-variant:normal;font-weight:normal;font-stretch:normal;font-family:'Tlwg Typist';-inkscape-font-specification:'Tlwg Typist'"
     id="textPath166"
     xlink:href="#path160"></textPath></text>



</g>
</g></g>
</svg>